<?xml version="1.0" encoding="UTF-8" standalone="no"?>
<svg
   xmlns:dc="http://purl.org/dc/elements/1.1/"
   xmlns:cc="http://creativecommons.org/ns#"
   xmlns:rdf="http://www.w3.org/1999/02/22-rdf-syntax-ns#"
   xmlns:svg="http://www.w3.org/2000/svg"
   xmlns="http://www.w3.org/2000/svg"
   xmlns:sodipodi="http://sodipodi.sourceforge.net/DTD/sodipodi-0.dtd"
   xmlns:inkscape="http://www.inkscape.org/namespaces/inkscape"
   sodipodi:docname="waves.svg"
   inkscape:version="1.0 (4035a4f, 2020-05-01)"
   id="svg232"
   version="1.1"
   viewBox="0 0 210 297"
   height="297mm"
   width="210mm">
  <defs
     id="defs226" />
  <sodipodi:namedview
     inkscape:window-maximized="0"
     inkscape:window-y="23"
     inkscape:window-x="0"
     inkscape:window-height="710"
     inkscape:window-width="1252"
     showgrid="false"
     inkscape:document-rotation="0"
     inkscape:current-layer="layer1"
     inkscape:document-units="mm"
     inkscape:cy="560"
     inkscape:cx="400"
     inkscape:zoom="0.35"
     inkscape:pageshadow="2"
     inkscape:pageopacity="0.0"
     borderopacity="1.0"
     bordercolor="#666666"
     pagecolor="#ffffff"
     id="base" />
  <metadata
     id="metadata229">
    <rdf:RDF>
      <cc:Work
         rdf:about="">
        <dc:format>image/svg+xml</dc:format>
        <dc:type
           rdf:resource="http://purl.org/dc/dcmitype/StillImage" />
        <dc:title></dc:title>
      </cc:Work>
    </rdf:RDF>
  </metadata>
  <g
     id="layer1"
     inkscape:groupmode="layer"
     inkscape:label="Layer 1">
    <g
       id="g1916"
       transform="matrix(1.1490942,0,0,1.1490942,-140.63852,7.8877959)">
      <path
         d="m 167.26747,20.074061 h 97.07804 c 8.45818,0 15.26747,6.809289 15.26747,15.267465 V 212.76126 c 0,8.45818 -6.80929,15.26746 -15.26747,15.26746 H 167.26747 C 158.80929,228.02872 152,221.21944 152,212.76126 V 35.341526 c 0,-8.458176 6.80929,-15.267465 15.26747,-15.267465 z"
         style="fill:#ffffff;fill-opacity:1;stroke:#000000;stroke-width:4;stroke-linecap:round;stroke-linejoin:round;stroke-miterlimit:4;stroke-dashoffset:0;stroke-opacity:1"
         id="rect2081" />
      <g
         id="g6261">
        <path
           style="fill:#094cf6"
           d="m 214.18353,162.2364 c 2.51872,-5.12325 3.29128,-11.3341 0.53325,-16.51717 -2.06933,-4.17726 -4.84956,-7.79826 -7.41481,-11.67064 -4.07078,-5.26514 -7.26359,-11.83577 -5.81048,-18.5265 0.76469,-4.84486 3.71753,-9.02309 6.02311,-13.25668 2.25847,-3.720588 4.48393,-7.759309 5.54653,-12.050023 1.13385,-5.885369 -0.64389,-14.508929 -4.69317,-19.127017 l 12.09581,0.0042 c 2.86155,4.494308 6.14156,9.345061 5.59316,14.8578 0.46569,7.20883 -4.20408,13.331591 -7.3534,19.50609 -3.74947,5.87617 -6.52781,13.34327 -3.43515,20.03255 2.8821,6.34391 7.64528,11.68874 11.05261,17.77588 2.86372,4.52458 3.09434,10.15986 1.96294,15.21218 -2.12504,5.59951 -5.19056,12.68878 -7.71061,18.122 l -13.11665,-0.0172 c 1.65501,-5.00027 4.43981,-9.5932 6.72686,-14.34549 z"
           id="path2161"
           sodipodi:nodetypes="cccccccccccccccc" />
        <path
           sodipodi:nodetypes="cccccccccccccccc"
           id="path2248"
           d="m 193.92596,162.2364 c 2.51872,-5.12325 3.29128,-11.3341 0.53325,-16.51717 -2.06933,-4.17726 -4.84956,-7.79826 -7.41481,-11.67064 -4.07078,-5.26514 -7.26359,-11.83577 -5.81048,-18.5265 0.76469,-4.84486 3.71753,-9.02309 6.02311,-13.25668 2.25847,-3.720588 4.48393,-7.759309 5.54653,-12.050023 1.13385,-5.885369 -0.64389,-14.508929 -4.69317,-19.127017 l 12.09581,0.0042 c 2.86155,4.494308 6.14156,9.345061 5.59316,14.8578 0.46569,7.20883 -4.20408,13.331591 -7.3534,19.50609 -3.74947,5.87617 -6.52781,13.34327 -3.43515,20.03255 2.8821,6.34391 7.64528,11.68874 11.05261,17.77588 2.86372,4.52458 3.09434,10.15986 1.96294,15.21218 -2.12504,5.59951 -5.19056,12.68878 -7.71061,18.122 l -13.11665,-0.0172 c 1.65501,-5.00027 4.43981,-9.5932 6.72686,-14.34549 z"
           style="fill:#094cf6" />
        <path
           sodipodi:nodetypes="cccccccccccccccc"
           id="path2250"
           d="m 234.4411,162.2364 c 2.51872,-5.12325 3.29128,-11.3341 0.53325,-16.51717 -2.06933,-4.17726 -4.84956,-7.79826 -7.41481,-11.67064 -4.07078,-5.26514 -7.26359,-11.83577 -5.81048,-18.5265 0.76469,-4.84486 3.71753,-9.02309 6.02311,-13.25668 2.25847,-3.720588 4.48393,-7.759309 5.54653,-12.050023 1.13385,-5.885369 -0.64389,-14.508929 -4.69317,-19.127017 l 12.09581,0.0042 c 2.86155,4.494308 6.14156,9.345061 5.59316,14.8578 0.46569,7.20883 -4.20408,13.331591 -7.3534,19.50609 -3.74947,5.87617 -6.52781,13.34327 -3.43515,20.03255 2.8821,6.34391 7.64528,11.68874 11.05261,17.77588 2.86372,4.52458 3.09434,10.15986 1.96294,15.21218 -2.12504,5.59951 -5.19056,12.68878 -7.71061,18.122 l -13.11665,-0.0172 c 1.65501,-5.00027 4.43981,-9.5932 6.72686,-14.34549 z"
           style="fill:#094cf6" />
      </g>
    </g>
  </g>
</svg>
